PathFileType	4	(X/Y/Z)	D:\TRACE\v60_Jaco2_6-2-23\BothDRS_Motion1_7-v60.trc
DataRate	CameraRate	NumFrames	NumMarkers	Units	OrigDataRate	OrigDataStartFrame	OrigNumFrames
100.00	100.00	      21	9	mm	100.00	1876	      7500
Frame#	Time	front left toe			Front right toe			aft left toe			aft right toe			Arm			FL body			FR body			AL Body			AR Body			
		X1	Y1	Z1	X2	Y2	Z2	X3	Y3	Z3	X4	Y4	Z4	X5	Y5	Z5	X6	Y6	Z6	X7	Y7	Z7	X8	Y8	Z8	X9	Y9	Z9	

1876	18.750	-147.36340	12.96029	-267.64386	210.50244	126.69688	-313.16757	-85.83315	141.87090	352.52097	311.81717	20.31430	307.95657	16.62366	1159.54846	-656.20471	-59.66854	566.04413	-412.80167	99.33691	562.84082	-434.77704	65.73448	577.79663	524.89886	220.20920	568.78766	504.35226	
1877	18.760	-147.86877	13.21157	-267.60107	212.17255	121.16705	-312.63132	-82.90611	136.70753	354.33078	311.68451	20.33944	308.00244	16.19081	1159.46838	-656.33453	-60.43724	565.91986	-412.86288	98.91339	562.47424	-434.82611	65.91544	578.03113	524.16290	220.14966	568.96466	504.40936	
1878	18.770	-148.17796	13.27911	-267.49896	214.07669	114.69913	-312.14102	-79.70753	130.56268	355.62955	310.31113	20.09380	308.06033	15.97673	1159.60291	-656.42468	-60.56261	565.89081	-412.86508	98.44872	562.36255	-434.90628	66.47434	578.32251	523.79364	220.82611	569.21442	504.20865	
1879	18.780	-149.00038	13.55450	-267.39108	215.95366	106.93096	-311.83810	-77.63905	124.17114	356.89111	309.88165	19.72892	308.16754	16.12248	1159.79651	-656.48138	-61.13010	566.07385	-412.84644	98.03854	562.26166	-434.85178	66.82905	578.63324	524.11041	221.70377	569.47504	504.06784	
1880	18.790	-149.97414	13.95093	-267.26752	218.59026	98.92178	-312.39050	-74.96742	116.70355	357.82251	309.21277	19.51095	308.07672	16.36766	1160.05811	-656.70270	-61.84047	566.25311	-412.77386	97.66673	562.21289	-434.98248	67.31033	578.74634	523.91345	222.07025	569.39398	503.84262	
1881	18.800	-150.67188	13.86832	-267.19415	220.78180	90.07960	-312.99911	-71.24100	106.89431	358.60336	308.55933	19.16291	308.04599	16.67845	1160.06885	-656.87579	-62.37269	566.33246	-412.67285	96.79123	562.25665	-435.20486	67.64688	578.71088	523.68829	222.03516	569.11267	503.37457	
1882	18.810	-151.27681	13.77924	-267.11066	222.83548	81.80291	-314.02545	-69.45200	97.72691	358.59158	308.12161	19.03841	308.02408	16.70781	1160.03894	-657.04547	-62.83448	566.22919	-412.84528	95.41532	562.04858	-434.52621	67.69878	578.61041	523.47620	222.13484	568.92694	503.16684	
1883	18.820	-151.98871	13.95763	-267.18274	225.27916	73.21355	-314.98520	-66.58885	87.86130	358.53949	307.49008	18.85599	307.94473	16.32660	1159.94470	-657.34967	-63.00127	566.27386	-412.92313	95.17237	561.89142	-434.59720	67.91124	578.50195	523.28540	222.45012	568.82117	502.90100	
1884	18.830	-152.76418	14.16613	-267.05014	225.88846	63.88885	-316.10474	-63.24163	77.47411	358.13263	306.36902	18.46297	307.95480	15.85074	1160.00940	-657.46912	-63.25631	566.31964	-412.90707	94.74643	562.29810	-435.60394	68.22314	578.39600	523.06458	223.14528	568.83093	502.59534	
1885	18.840	-153.57051	14.46935	-266.85516	226.24442	55.05063	-317.32925	-61.19891	67.62005	356.89215	305.65338	18.22494	308.07242	15.38553	1160.27808	-657.47095	-64.42068	566.75885	-413.36792	94.16978	562.46631	-436.07825	68.51527	578.25183	522.72388	223.39897	568.71979	502.18793	
1886	18.850	-154.08968	14.52293	-266.65613	228.84889	46.93331	-318.03561	-61.21577	58.69454	355.19583	305.43491	18.12234	308.18442	14.50973	1160.34338	-657.43628	-64.72269	566.91162	-413.48453	93.90664	562.67877	-436.29041	68.79934	577.97351	522.38855	223.24535	568.46814	501.63022	
1887	18.860	-154.70795	14.72874	-266.53085	229.28566	38.36298	-318.64877	-60.66779	49.97292	354.05121	304.74603	17.80942	308.10153	13.43518	1160.58679	-657.54370	-65.16543	567.10699	-413.84363	94.01274	563.05176	-436.91025	68.84686	577.71094	521.76782	223.19804	568.10376	500.99402	
1888	18.870	-155.53471	14.99950	-266.47678	228.99379	30.33885	-319.69910	-60.90499	41.82611	352.83691	303.62860	17.43727	308.07898	12.35844	1160.93835	-657.80139	-65.35623	567.32013	-414.17261	93.38669	563.30212	-437.47083	69.10862	577.19879	521.56915	223.86127	567.64264	500.56824	
1889	18.880	-156.40102	15.27851	-266.41135	228.54404	23.76527	-320.94659	-61.26741	34.27666	351.60541	303.30917	17.42823	308.14487	11.14641	1161.55603	-657.64990	-66.18726	567.67517	-414.72656	93.14283	563.52856	-437.98782	69.27789	576.84723	520.98279	224.05229	567.39734	499.99979	
1890	18.890	-156.87000	15.44992	-266.37253	227.45531	18.58074	-322.88559	-61.15882	27.68939	350.05356	302.44400	17.15807	308.31149	10.12919	1162.16516	-657.62305	-66.51517	568.05408	-415.05170	92.40274	564.25482	-438.76141	69.37632	576.64709	520.42847	223.99925	567.22675	499.04089	
1891	18.900	-157.54005	15.72933	-266.39209	227.44774	18.13295	-323.71323	-61.11600	21.47785	348.15137	301.85223	16.94317	308.37878	8.83373	1163.17236	-657.68530	-67.17212	568.51862	-415.68680	91.96526	564.71564	-439.23965	69.89995	576.31238	519.84949	224.40291	567.00592	498.41702	
1892	18.910	-158.14447	15.91298	-266.35873	226.69615	17.06207	-324.85577	-61.52068	15.35632	346.07458	301.17441	16.76631	308.44846	7.90637	1163.96533	-657.57983	-68.21667	569.16852	-416.17838	90.45068	565.57410	-439.75082	70.17914	575.83014	519.26337	224.55927	566.80444	497.58820	
1893	18.920	-158.95621	16.29699	-266.08740	224.38020	16.47935	-324.41153	-63.40507	14.79066	344.70465	300.50604	16.59772	308.33450	7.00031	1165.12451	-657.65948	-68.84770	570.23364	-416.67810	89.34032	566.46222	-439.74356	70.07053	575.87408	518.37964	224.43909	566.92041	496.65485	
1894	18.930	-159.41113	16.67034	-266.46112	223.84747	16.57017	-324.44662	-65.05865	13.21324	345.71286	299.63510	16.66869	307.82965	5.33638	1166.44727	-657.75671	-70.07613	570.95056	-417.02463	88.24006	567.25427	-440.97992	70.69508	577.57513	517.81439	224.80084	568.21283	495.97775	
1895	18.940	-160.24156	18.65014	-266.28333	224.21416	16.40756	-324.08276	-65.30795	13.97593	346.17316	298.21640	18.66172	307.67987	3.70608	1167.79980	-658.02393	-70.84657	571.31305	-417.37677	87.62457	568.05902	-441.99481	71.00809	579.27472	517.36151	225.25177	569.89392	495.35086	
1896	18.950	-158.21361	22.39758	-265.54541	222.20735	16.30949	-324.33743	-65.08707	13.37786	346.65097	295.70883	21.76915	309.91946	1.59931	1169.43445	-659.15582	-72.19493	572.75140	-417.51498	86.13016	569.25055	-441.81375	71.06677	580.01453	516.98218	225.34720	570.80219	494.51602	
